<svg xmlns="http://www.w3.org/2000/svg" xmlns:xlink="http://www.w3.org/1999/xlink" viewBox="0 0 138.707 30" overflow="visible"><path d="M 44.52 23.803 C 42.847 23.803 41.397 23.432 40.166 22.684 C 38.936 21.938 37.993 20.897 37.338 19.561 C 36.683 18.226 36.354 16.671 36.354 14.901 C 36.354 13.132 36.683 11.597 37.338 10.253 C 37.993 8.91 38.936 7.865 40.166 7.119 C 41.397 6.373 42.847 6 44.52 6 C 46.519 6 48.155 6.483 49.426 7.45 C 50.697 8.418 51.495 9.777 51.824 11.532 L 49.096 11.532 C 48.85 10.516 48.35 9.702 47.595 9.098 C 46.84 8.49 45.809 8.189 44.497 8.189 C 43.332 8.189 42.333 8.458 41.497 9 C 40.66 9.541 40.012 10.312 39.555 11.311 C 39.094 12.311 38.865 13.508 38.865 14.901 C 38.865 16.295 39.094 17.496 39.555 18.505 C 40.012 19.513 40.66 20.284 41.497 20.816 C 42.333 21.349 43.332 21.616 44.497 21.616 C 45.809 21.616 46.84 21.326 47.595 20.743 C 48.35 20.16 48.849 19.37 49.096 18.371 L 51.824 18.371 C 51.495 20.075 50.697 21.408 49.426 22.366 C 48.155 23.325 46.52 23.805 44.52 23.805 L 44.52 23.802 Z M 59.23 23.802 C 58.049 23.802 56.993 23.533 56.057 22.991 C 55.127 22.455 54.368 21.666 53.868 20.716 C 53.342 19.742 53.081 18.613 53.081 17.335 C 53.081 16.056 53.349 14.88 53.881 13.903 C 54.389 12.955 55.151 12.167 56.082 11.628 C 57.015 11.087 58.064 10.817 59.23 10.817 C 60.395 10.817 61.46 11.087 62.378 11.628 C 63.296 12.169 64.026 12.924 64.567 13.889 C 65.109 14.857 65.378 15.997 65.378 17.307 C 65.378 18.618 65.109 19.739 64.567 20.714 C 64.026 21.688 63.292 22.447 62.367 22.99 C 61.44 23.531 60.395 23.801 59.233 23.801 L 59.23 23.803 Z M 59.205 21.688 C 59.86 21.688 60.463 21.525 61.013 21.196 C 61.562 20.867 62.009 20.375 62.353 19.72 C 62.697 19.065 62.869 18.26 62.869 17.311 C 62.869 16.361 62.702 15.536 62.366 14.888 C 62.031 14.24 61.591 13.753 61.05 13.424 C 60.508 13.095 59.91 12.932 59.255 12.932 C 58.6 12.932 57.992 13.095 57.435 13.424 C 56.878 13.753 56.431 14.239 56.096 14.888 C 55.761 15.536 55.592 16.343 55.592 17.311 C 55.592 18.279 55.76 19.065 56.096 19.72 C 56.432 20.375 56.871 20.867 57.41 21.196 C 57.951 21.525 58.573 21.695 59.205 21.688 Z M 73.374 29.214 C 72.618 29.218 71.866 29.119 71.137 28.919 C 70.45 28.73 69.798 28.431 69.206 28.033 C 68.629 27.643 68.139 27.137 67.768 26.547 C 67.383 25.929 67.132 25.238 67.029 24.518 L 69.488 24.518 C 69.635 25.026 69.884 25.472 70.238 25.857 C 70.589 26.243 71.038 26.542 71.577 26.755 C 72.142 26.972 72.743 27.081 73.348 27.074 C 74.068 27.074 74.726 26.923 75.314 26.618 C 75.903 26.315 76.375 25.852 76.729 25.229 C 77.08 24.606 77.257 23.81 77.257 22.842 L 77.257 21.17 C 76.984 21.624 76.644 22.035 76.248 22.387 C 75.812 22.772 75.308 23.072 74.762 23.273 C 74.179 23.496 73.504 23.607 72.733 23.607 C 71.586 23.607 70.557 23.337 69.646 22.796 C 68.737 22.254 68.015 21.497 67.482 20.52 C 66.95 19.546 66.682 18.442 66.682 17.213 C 66.682 15.984 66.95 14.845 67.482 13.893 C 67.995 12.963 68.746 12.187 69.658 11.642 C 70.576 11.094 71.609 10.819 72.756 10.819 C 73.445 10.819 74.075 10.922 74.648 11.128 C 75.221 11.334 75.729 11.609 76.173 11.951 C 76.615 12.295 76.975 12.689 77.254 13.131 L 77.499 11.114 L 79.714 11.114 L 79.714 22.77 C 79.714 23.819 79.552 24.741 79.233 25.537 C 78.914 26.333 78.472 27.002 77.906 27.541 C 77.33 28.087 76.648 28.51 75.902 28.783 C 75.132 29.068 74.286 29.213 73.369 29.213 L 73.376 29.213 Z M 73.179 21.493 C 73.981 21.493 74.684 21.309 75.283 20.94 C 75.879 20.573 76.363 20.05 76.684 19.428 C 77.02 18.789 77.187 18.05 77.187 17.213 C 77.187 16.376 77.02 15.62 76.684 14.988 C 76.363 14.373 75.878 13.858 75.283 13.501 C 74.684 13.141 73.984 12.96 73.179 12.96 C 72.374 12.96 71.72 13.142 71.114 13.501 C 70.514 13.855 70.024 14.37 69.7 14.988 C 69.365 15.62 69.197 16.361 69.197 17.213 C 69.197 18.065 69.364 18.789 69.7 19.428 C 70.022 20.053 70.512 20.577 71.114 20.94 C 71.719 21.309 72.409 21.493 73.179 21.493 Z M 82.048 23.51 L 82.048 11.115 L 84.262 11.115 L 84.409 13.229 C 84.785 12.495 85.36 11.881 86.069 11.459 C 86.783 11.033 87.614 10.819 88.564 10.819 C 89.563 10.819 90.415 11.017 91.12 11.408 C 91.825 11.801 92.371 12.397 92.757 13.192 C 93.142 13.987 93.334 14.983 93.334 16.179 L 93.334 23.508 L 90.875 23.508 L 90.875 16.426 C 90.875 15.279 90.621 14.407 90.114 13.806 C 89.607 13.207 88.868 12.908 87.9 12.908 C 87.261 12.908 86.688 13.064 86.177 13.375 C 85.669 13.688 85.264 14.137 84.96 14.729 C 84.657 15.318 84.505 16.041 84.505 16.893 L 84.505 23.509 L 82.046 23.509 L 82.048 23.509 Z M 96.775 8.777 C 96.299 8.777 95.909 8.629 95.608 8.335 C 95.304 8.041 95.152 7.661 95.152 7.204 C 95.152 6.746 95.304 6.397 95.608 6.109 C 95.911 5.823 96.299 5.679 96.775 5.679 C 97.251 5.679 97.618 5.821 97.931 6.109 C 98.241 6.396 98.397 6.761 98.397 7.204 C 98.397 7.646 98.241 8.041 97.931 8.335 C 97.618 8.629 97.235 8.777 96.775 8.777 Z M 95.544 23.508 L 95.544 11.113 L 98.003 11.113 L 98.003 23.508 Z M 105.337 23.507 C 104.55 23.507 103.871 23.385 103.295 23.138 C 102.723 22.894 102.253 22.459 101.967 21.907 C 101.654 21.334 101.5 20.554 101.5 19.571 L 101.5 13.177 L 99.361 13.177 L 99.361 11.112 L 101.5 11.112 L 101.82 7.989 L 103.959 7.989 L 103.959 11.112 L 107.452 11.112 L 107.452 13.177 L 103.959 13.177 L 103.959 19.595 C 103.959 20.301 104.107 20.781 104.401 21.034 C 104.696 21.288 105.204 21.415 105.927 21.415 L 107.352 21.415 L 107.352 23.504 L 105.335 23.504 Z M 110.189 8.777 C 109.713 8.777 109.323 8.629 109.022 8.335 C 108.718 8.041 108.566 7.661 108.566 7.204 C 108.566 6.746 108.718 6.397 109.022 6.109 C 109.325 5.823 109.713 5.679 110.189 5.679 C 110.665 5.679 111.032 5.821 111.345 6.109 C 111.655 6.396 111.811 6.761 111.811 7.204 C 111.811 7.646 111.655 8.041 111.345 8.335 C 111.032 8.629 110.649 8.777 110.189 8.777 Z M 108.958 23.508 L 108.958 11.113 L 111.417 11.113 L 111.417 23.508 Z M 119.439 23.802 C 118.258 23.802 117.202 23.533 116.266 22.991 C 115.336 22.454 114.577 21.666 114.076 20.716 C 113.551 19.742 113.29 18.613 113.29 17.335 C 113.29 16.056 113.558 14.88 114.09 13.903 C 114.598 12.955 115.36 12.167 116.291 11.628 C 117.225 11.087 118.274 10.817 119.439 10.817 C 120.605 10.817 121.669 11.087 122.587 11.628 C 123.505 12.169 124.235 12.924 124.776 13.889 C 125.318 14.857 125.588 15.997 125.588 17.307 C 125.588 18.618 125.318 19.739 124.776 20.714 C 124.235 21.688 123.5 22.447 122.575 22.99 C 121.649 23.531 120.604 23.801 119.441 23.801 L 119.439 23.803 Z M 119.414 21.688 C 120.051 21.694 120.677 21.523 121.223 21.196 C 121.771 20.867 122.217 20.375 122.562 19.72 C 122.907 19.065 123.079 18.26 123.079 17.311 C 123.079 16.361 122.911 15.536 122.575 14.888 C 122.24 14.24 121.8 13.753 121.259 13.424 C 120.717 13.095 120.119 12.932 119.464 12.932 C 118.809 12.932 118.202 13.095 117.644 13.424 C 117.086 13.753 116.64 14.239 116.304 14.888 C 115.969 15.536 115.802 16.343 115.802 17.311 C 115.802 18.279 115.969 19.065 116.304 19.72 C 116.64 20.375 117.08 20.867 117.619 21.196 C 118.16 21.524 118.781 21.695 119.414 21.688 Z M 127.42 23.51 L 127.42 11.115 L 129.635 11.115 L 129.782 13.229 C 130.158 12.495 130.733 11.881 131.441 11.459 C 132.154 11.033 132.987 10.819 133.936 10.819 C 134.936 10.819 135.787 11.017 136.493 11.408 C 137.197 11.801 137.744 12.397 138.129 13.192 C 138.514 13.987 138.707 14.983 138.707 16.179 L 138.707 23.508 L 136.248 23.508 L 136.248 16.426 C 136.248 15.279 135.994 14.407 135.486 13.806 C 134.978 13.207 134.239 12.908 133.272 12.908 C 132.633 12.908 132.06 13.064 131.549 13.375 C 131.042 13.688 130.636 14.137 130.333 14.729 C 130.029 15.318 129.877 16.041 129.877 16.893 L 129.877 23.509 L 127.418 23.509 L 127.42 23.509 Z M 18.121 13.236 C 18.753 12.874 19.529 12.874 20.161 13.236 L 21.79 14.177 C 21.854 14.212 21.922 14.238 21.992 14.253 C 22.049 14.267 22.106 14.274 22.163 14.276 L 22.171 14.276 C 22.178 14.276 22.183 14.276 22.19 14.274 C 22.31 14.271 22.427 14.24 22.532 14.181 L 22.548 14.174 L 25.805 12.293 C 26.038 12.159 26.182 11.91 26.181 11.64 L 26.181 7.878 C 26.182 7.609 26.038 7.36 25.805 7.226 L 22.548 5.345 C 22.314 5.21 22.027 5.21 21.793 5.345 L 18.536 7.226 C 18.536 7.226 18.528 7.233 18.523 7.235 C 18.473 7.264 18.426 7.3 18.385 7.341 L 18.366 7.362 C 18.33 7.401 18.298 7.444 18.269 7.489 C 18.265 7.496 18.26 7.502 18.256 7.512 C 18.192 7.625 18.158 7.753 18.158 7.884 L 18.158 9.765 C 18.158 10.494 17.768 11.167 17.137 11.531 C 16.506 11.895 15.729 11.894 15.098 11.53 L 13.469 10.589 C 13.405 10.554 13.337 10.528 13.267 10.513 C 13.211 10.5 13.154 10.492 13.097 10.49 L 13.072 10.49 C 12.951 10.491 12.833 10.522 12.727 10.581 L 12.711 10.588 L 9.455 12.469 C 9.221 12.603 9.078 12.852 9.078 13.121 L 9.078 16.883 C 9.077 17.153 9.221 17.402 9.455 17.536 L 12.711 19.417 L 12.727 19.424 C 12.778 19.452 12.833 19.474 12.889 19.49 L 12.916 19.497 C 12.967 19.509 13.019 19.516 13.072 19.518 C 13.079 19.518 13.083 19.52 13.091 19.52 L 13.099 19.52 C 13.157 19.52 13.214 19.512 13.269 19.497 C 13.281 19.495 13.292 19.49 13.306 19.489 C 13.363 19.472 13.419 19.449 13.471 19.421 L 15.101 18.48 C 15.732 18.118 16.508 18.118 17.14 18.48 C 17.77 18.845 18.158 19.518 18.16 20.246 L 18.16 22.127 C 18.16 22.188 18.169 22.247 18.183 22.304 C 18.185 22.315 18.187 22.328 18.192 22.34 C 18.208 22.395 18.23 22.448 18.257 22.498 L 18.271 22.521 C 18.298 22.566 18.33 22.61 18.369 22.648 L 18.387 22.669 C 18.428 22.709 18.476 22.744 18.526 22.775 C 18.53 22.778 18.535 22.782 18.539 22.784 L 21.796 24.666 C 22.028 24.801 22.316 24.801 22.549 24.666 L 25.805 22.784 C 26.039 22.65 26.183 22.401 26.182 22.132 L 26.182 18.37 C 26.183 18.1 26.039 17.851 25.805 17.717 L 22.549 15.836 L 22.533 15.829 C 22.482 15.801 22.428 15.779 22.372 15.763 C 22.364 15.761 22.356 15.761 22.348 15.758 C 22.296 15.745 22.242 15.738 22.189 15.738 L 22.164 15.738 C 22.107 15.739 22.05 15.747 21.994 15.761 C 21.983 15.764 21.971 15.768 21.961 15.77 C 21.903 15.786 21.848 15.809 21.795 15.838 L 20.166 16.778 C 19.534 17.141 18.758 17.141 18.126 16.778 C 17.499 16.416 17.106 15.738 17.106 15.013 C 17.106 14.287 17.496 13.61 18.126 13.247 L 18.124 13.238 Z M 0.377 12.296 L 3.634 14.178 C 3.867 14.314 4.154 14.314 4.387 14.178 L 7.644 12.296 C 7.644 12.296 7.653 12.289 7.657 12.287 C 7.707 12.258 7.754 12.222 7.795 12.181 L 7.814 12.16 C 7.85 12.122 7.882 12.078 7.912 12.033 C 7.916 12.026 7.921 12.02 7.925 12.011 C 7.989 11.897 8.022 11.769 8.023 11.639 L 8.023 9.758 C 8.023 9.029 8.413 8.357 9.044 7.993 C 9.675 7.629 10.452 7.629 11.083 7.993 L 12.712 8.934 C 12.776 8.969 12.844 8.995 12.914 9.01 C 12.971 9.024 13.025 9.031 13.084 9.033 L 13.093 9.033 C 13.1 9.033 13.105 9.031 13.112 9.031 C 13.233 9.029 13.351 8.996 13.456 8.937 L 13.472 8.93 L 16.729 7.049 C 16.962 6.915 17.106 6.666 17.105 6.396 L 17.105 2.634 C 17.106 2.365 16.963 2.116 16.729 1.982 L 13.472 0.101 C 13.239 -0.034 12.951 -0.034 12.718 0.101 L 9.461 1.982 C 9.461 1.982 9.452 1.989 9.448 1.991 C 9.397 2.021 9.351 2.057 9.309 2.097 L 9.291 2.118 C 9.255 2.157 9.222 2.2 9.193 2.245 C 9.188 2.252 9.184 2.258 9.18 2.268 C 9.116 2.381 9.082 2.509 9.082 2.64 L 9.082 4.521 C 9.082 5.247 8.692 5.924 8.062 6.287 C 7.43 6.649 6.653 6.649 6.022 6.287 L 4.392 5.346 C 4.329 5.311 4.261 5.285 4.19 5.27 C 4.135 5.257 4.078 5.249 4.02 5.247 L 3.996 5.247 C 3.875 5.248 3.757 5.279 3.651 5.337 L 3.635 5.345 L 0.378 7.226 C 0.145 7.36 0.001 7.609 0.002 7.878 L 0.002 11.64 C 0.001 11.91 0.145 12.159 0.378 12.293 L 0.378 12.297 Z M 16.725 22.948 L 13.468 21.067 L 13.452 21.06 C 13.401 21.032 13.347 21.01 13.291 20.994 L 13.263 20.987 C 13.211 20.975 13.158 20.968 13.105 20.967 L 13.08 20.967 C 13.022 20.968 12.965 20.975 12.91 20.99 C 12.898 20.993 12.887 20.997 12.875 20.999 C 12.818 21.015 12.762 21.038 12.71 21.067 L 11.08 22.007 C 10.45 22.37 9.674 22.37 9.043 22.007 C 8.412 21.643 8.024 20.97 8.023 20.241 L 8.023 18.36 C 8.023 18.288 8.012 18.216 7.991 18.147 C 7.975 18.092 7.953 18.038 7.925 17.988 C 7.921 17.981 7.916 17.975 7.912 17.965 C 7.884 17.919 7.852 17.876 7.814 17.838 L 7.796 17.818 C 7.754 17.777 7.708 17.742 7.658 17.711 C 7.653 17.709 7.649 17.704 7.645 17.702 L 4.388 15.821 C 4.154 15.687 3.867 15.687 3.633 15.821 L 0.376 17.702 C 0.143 17.837 -0.001 18.086 0 18.355 L 0 22.117 C -0.001 22.386 0.143 22.635 0.376 22.769 L 3.633 24.651 L 3.649 24.658 C 3.7 24.685 3.753 24.707 3.808 24.723 L 3.835 24.73 C 3.886 24.742 3.939 24.748 3.991 24.75 L 4.01 24.752 L 4.018 24.752 C 4.075 24.752 4.132 24.743 4.186 24.729 C 4.197 24.726 4.211 24.722 4.222 24.72 C 4.28 24.704 4.335 24.681 4.388 24.652 L 6.017 23.712 C 6.649 23.349 7.426 23.349 8.057 23.712 C 8.687 24.077 9.076 24.749 9.077 25.478 L 9.077 27.359 C 9.077 27.42 9.086 27.479 9.1 27.536 C 9.103 27.548 9.105 27.561 9.109 27.572 C 9.125 27.627 9.148 27.681 9.175 27.731 C 9.18 27.738 9.184 27.744 9.188 27.754 C 9.216 27.799 9.247 27.842 9.286 27.881 L 9.304 27.901 C 9.344 27.942 9.392 27.976 9.442 28.008 C 9.447 28.01 9.451 28.015 9.456 28.017 L 12.713 29.898 C 12.946 30.034 13.234 30.034 13.466 29.898 L 16.723 28.017 C 16.956 27.882 17.1 27.633 17.099 27.364 L 17.099 23.602 C 17.1 23.333 16.956 23.084 16.723 22.95 Z" fill="#171717"></path></svg>