<svg xmlns="http://www.w3.org/2000/svg" xmlns:xlink="http://www.w3.org/1999/xlink" viewBox="0 0 105.243 28" overflow="visible"><path d="M 7.28 9.445 C 4.779 9.445 3.547 11.648 3.547 14.597 L 3.547 21.989 L 0 21.989 L 0 6.421 L 3.472 6.421 L 3.472 10.453 L 3.547 10.453 C 4.293 7.952 5.749 5.973 8.027 5.973 C 9.632 5.973 10.304 6.533 10.304 6.533 L 8.699 9.744 C 8.699 9.744 8.213 9.445 7.28 9.445 Z M 49.952 11.611 L 49.952 22.027 L 46.517 22.027 L 46.517 12.88 C 46.517 10.267 45.696 8.885 43.605 8.885 C 41.44 8.885 40.395 10.64 40.395 14 L 40.395 22.027 L 36.96 22.027 L 36.96 12.88 C 36.96 10.379 36.139 8.885 34.085 8.885 C 31.696 8.885 30.8 10.976 30.8 14 L 30.8 22.027 L 27.328 22.027 L 27.328 6.421 L 30.8 6.421 L 30.8 9.968 L 30.837 9.968 C 31.36 7.541 32.853 6.011 35.355 6.011 C 37.819 6.011 39.424 7.355 40.059 9.707 C 40.656 7.429 42.187 6.011 44.576 6.011 C 47.824 6.011 49.952 8.064 49.952 11.611 Z M 17.248 5.973 C 14.037 5.973 11.984 7.467 11.013 10.192 L 13.963 11.275 C 14.485 9.632 15.605 8.699 17.323 8.699 C 19.227 8.699 20.384 9.557 20.384 10.827 C 20.384 12.133 19.488 12.432 17.472 12.768 C 15.232 13.141 9.856 13.253 9.856 17.771 C 9.856 20.421 12.059 22.4 15.381 22.4 C 17.883 22.4 19.6 21.392 20.384 19.488 L 20.421 19.488 L 20.421 22.027 L 23.856 22.027 L 23.856 12.432 C 23.819 8.213 21.728 5.973 17.248 5.973 Z M 20.459 14.672 C 20.459 17.957 18.853 20.048 16.24 20.048 C 14.411 20.048 13.328 19.04 13.328 17.547 C 13.328 16.165 14.448 15.195 16.613 14.784 C 18.816 14.373 19.936 13.888 20.459 12.656 Z M 62.197 6.011 C 59.584 6.011 57.829 7.467 57.083 9.632 L 57.083 6.421 L 53.424 6.421 L 53.424 28 L 57.045 28 L 57.045 18.816 L 57.083 18.816 C 57.904 21.168 59.584 22.475 62.197 22.475 C 66.379 22.475 69.365 19.04 69.365 14.187 C 69.365 9.333 66.379 6.011 62.197 6.011 Z M 61.301 19.563 C 58.427 19.563 56.821 17.472 56.821 14.224 C 56.821 10.976 58.613 8.885 61.301 8.885 C 63.989 8.885 65.781 11.088 65.781 14.224 C 65.781 17.36 63.989 19.563 61.301 19.563 Z M 105.243 21.915 L 105.243 22.027 L 91.093 22.027 L 91.093 21.915 C 93.147 20.757 94.528 19.6 95.797 18.368 L 101.621 18.368 Z M 101.733 3.509 L 98.149 0 L 98.037 0 C 98.037 0 98.112 6.533 92.064 12.507 C 86.165 18.331 79.259 18.368 79.259 18.368 L 79.259 18.48 L 82.917 22.064 C 82.917 22.064 89.749 22.139 95.76 16.203 C 101.771 10.304 101.733 3.509 101.733 3.509 Z" fill="#171717"></path></svg>