<svg xmlns="http://www.w3.org/2000/svg" xmlns:xlink="http://www.w3.org/1999/xlink" viewBox="0 0 108.899 30" overflow="visible"><path d="M 34.249 14.423 C 34.249 19.328 37.399 22.748 41.764 22.748 C 46.129 22.748 49.279 19.328 49.279 14.423 C 49.279 9.518 46.129 6.098 41.764 6.098 C 37.399 6.098 34.249 9.518 34.249 14.423 Z M 46.399 14.423 C 46.399 17.933 44.486 20.206 41.764 20.206 C 39.041 20.206 37.129 17.933 37.129 14.423 C 37.129 10.913 39.041 8.64 41.764 8.64 C 44.486 8.64 46.399 10.913 46.399 14.423 Z M 57.389 22.748 C 60.697 22.748 62.587 19.958 62.587 16.605 C 62.587 13.253 60.697 10.463 57.389 10.463 C 55.859 10.463 54.734 11.07 53.992 11.948 L 53.992 10.688 L 51.292 10.688 L 51.292 26.551 L 53.992 26.551 L 53.992 21.263 C 54.734 22.141 55.859 22.748 57.389 22.748 Z M 53.924 16.268 C 53.924 14.04 55.184 12.825 56.849 12.825 C 58.807 12.825 59.864 14.355 59.864 16.605 C 59.864 18.856 58.807 20.386 56.849 20.386 C 55.184 20.386 53.924 19.148 53.924 16.965 Z M 69.894 22.748 C 72.257 22.748 74.124 21.511 74.957 19.441 L 72.639 18.563 C 72.279 19.778 71.222 20.453 69.894 20.453 C 68.161 20.453 66.946 19.216 66.744 17.191 L 75.024 17.191 L 75.024 16.29 C 75.024 13.05 73.202 10.463 69.781 10.463 C 66.361 10.463 64.156 13.14 64.156 16.605 C 64.156 20.251 66.519 22.748 69.894 22.748 Z M 69.759 12.735 C 71.469 12.735 72.279 13.86 72.302 15.165 L 66.879 15.165 C 67.284 13.568 68.364 12.735 69.759 12.735 Z M 77.05 22.501 L 79.75 22.501 L 79.75 15.57 C 79.75 13.883 80.988 12.983 82.203 12.983 C 83.688 12.983 84.273 14.04 84.273 15.503 L 84.273 22.501 L 86.973 22.501 L 86.973 14.715 C 86.973 12.173 85.488 10.463 83.013 10.463 C 81.483 10.463 80.425 11.16 79.75 11.948 L 79.75 10.688 L 77.05 10.688 Z M 94.881 6.345 L 88.761 22.501 L 91.618 22.501 L 92.991 18.811 L 99.966 18.811 L 101.361 22.501 L 104.263 22.501 L 98.143 6.345 Z M 96.456 9.54 L 99.021 16.29 L 93.936 16.29 Z M 108.899 6.392 L 106.019 6.392 L 106.019 22.547 L 108.899 22.547 Z M 27.65 12.279 C 28.331 10.236 28.097 7.998 27.008 6.14 C 25.371 3.29 22.08 1.824 18.867 2.514 C 17.437 0.903 15.383 -0.013 13.229 0 C 9.944 -0.007 7.03 2.108 6.019 5.233 C 3.908 5.665 2.087 6.987 1.021 8.859 C -0.628 11.701 -0.252 15.285 1.951 17.722 C 1.271 19.765 1.505 22.003 2.593 23.861 C 4.23 26.711 7.521 28.177 10.735 27.487 C 12.164 29.098 14.219 30.014 16.372 30 C 19.659 30.008 22.575 27.891 23.585 24.763 C 25.696 24.331 27.517 23.009 28.583 21.137 C 30.23 18.295 29.853 14.715 27.651 12.277 Z M 16.374 28.039 C 15.059 28.042 13.784 27.581 12.775 26.738 C 12.821 26.714 12.9 26.67 12.952 26.638 L 18.926 23.188 C 19.231 23.014 19.419 22.689 19.417 22.337 L 19.417 13.916 L 21.942 15.374 C 21.969 15.387 21.987 15.413 21.99 15.443 L 21.99 22.417 C 21.987 25.518 19.475 28.033 16.374 28.039 Z M 4.295 22.88 C 3.636 21.742 3.399 20.409 3.624 19.113 C 3.669 19.14 3.746 19.187 3.802 19.219 L 9.776 22.669 C 10.078 22.847 10.453 22.847 10.757 22.669 L 18.05 18.458 L 18.05 21.374 C 18.052 21.404 18.038 21.433 18.014 21.452 L 11.976 24.938 C 9.286 26.487 5.851 25.566 4.296 22.88 Z M 2.723 9.84 C 3.379 8.7 4.415 7.828 5.649 7.376 C 5.649 7.427 5.646 7.518 5.646 7.582 L 5.646 14.483 C 5.644 14.834 5.831 15.159 6.136 15.332 L 13.429 19.543 L 10.904 21.001 C 10.879 21.017 10.847 21.02 10.819 21.008 L 4.779 17.519 C 2.095 15.964 1.175 12.53 2.722 9.841 Z M 23.466 14.668 L 16.173 10.456 L 18.698 8.999 C 18.723 8.983 18.755 8.98 18.783 8.992 L 24.823 12.479 C 27.512 14.032 28.433 17.472 26.88 20.161 C 26.223 21.299 25.188 22.17 23.955 22.624 L 23.955 15.517 C 23.957 15.166 23.771 14.842 23.467 14.668 Z M 25.979 10.886 C 25.935 10.858 25.857 10.812 25.802 10.78 L 19.828 7.33 C 19.524 7.152 19.149 7.152 18.846 7.33 L 11.553 11.541 L 11.553 8.625 C 11.551 8.595 11.565 8.566 11.589 8.548 L 17.627 5.064 C 20.317 3.512 23.756 4.436 25.306 7.126 C 25.962 8.263 26.199 9.593 25.977 10.886 Z M 10.181 16.082 L 7.655 14.625 C 7.628 14.611 7.609 14.585 7.606 14.555 L 7.606 7.581 C 7.608 4.476 10.127 1.96 13.232 1.961 C 14.546 1.961 15.817 2.423 16.827 3.263 C 16.781 3.287 16.702 3.331 16.649 3.363 L 10.676 6.813 C 10.37 6.986 10.182 7.311 10.184 7.662 L 10.181 16.08 Z M 11.552 13.125 L 14.801 11.249 L 18.049 13.124 L 18.049 16.876 L 14.801 18.751 L 11.552 16.876 Z" fill="#171717"></path></svg>