<svg display="block" role="presentation" viewBox="0 0 511 147" xmlns="http://www.w3.org/2000/svg"><g d="M 0 9.2 C 0 6.328 2.334 4 5.213 4 L 12.708 4 C 15.583 3.997 17.917 6.325 17.921 9.2 L 17.921 16.675 C 17.921 19.547 15.587 21.875 12.708 21.875 L 5.213 21.875 C 2.338 21.878 0.004 19.55 0 16.675 Z M 17.27 26.425 C 17.27 23.553 19.604 21.225 22.483 21.225 L 29.977 21.225 C 31.358 21.223 32.683 21.77 33.661 22.745 C 34.639 23.72 35.189 25.044 35.191 26.425 L 35.191 33.9 C 35.191 36.772 32.857 39.1 29.977 39.1 L 22.483 39.1 C 19.608 39.103 17.274 36.775 17.27 33.9 Z M 34.54 9.2 C 34.54 6.328 36.874 4 39.753 4 L 47.247 4 C 48.628 3.998 49.953 4.545 50.931 5.52 C 51.909 6.495 52.459 7.819 52.461 9.2 L 52.461 16.675 C 52.461 19.547 50.127 21.875 47.247 21.875 L 39.753 21.875 C 38.372 21.877 37.047 21.33 36.069 20.355 C 35.091 19.38 34.541 18.056 34.539 16.675 L 34.539 9.2 Z M 69.079 9.2 C 69.079 6.328 71.413 4 74.292 4 L 81.787 4 C 84.662 3.997 86.996 6.325 87 9.2 L 87 16.675 C 87 19.547 84.666 21.875 81.787 21.875 L 74.292 21.875 C 71.417 21.878 69.083 19.55 69.079 16.675 Z M 51.809 26.425 C 51.809 23.553 54.143 21.225 57.023 21.225 L 64.517 21.225 C 67.392 21.222 69.726 23.55 69.73 26.425 L 69.73 33.9 C 69.73 36.772 67.396 39.1 64.517 39.1 L 57.023 39.1 C 55.642 39.102 54.317 38.555 53.339 37.58 C 52.361 36.605 51.811 35.281 51.809 33.9 Z M 34.54 43.65 C 34.54 40.778 36.874 38.45 39.753 38.45 L 47.247 38.45 C 48.628 38.448 49.953 38.995 50.931 39.97 C 51.909 40.945 52.459 42.269 52.461 43.65 L 52.461 51.125 C 52.461 53.997 50.127 56.325 47.247 56.325 L 39.753 56.325 C 38.372 56.327 37.047 55.78 36.069 54.805 C 35.091 53.83 34.541 52.506 34.539 51.125 L 34.539 43.65 Z M 51.809 60.875 C 51.809 58.003 54.143 55.675 57.023 55.675 L 64.517 55.675 C 67.392 55.672 69.726 58 69.73 60.875 L 69.73 68.35 C 69.73 71.222 67.396 73.55 64.517 73.55 L 57.023 73.55 C 55.642 73.552 54.317 73.005 53.339 72.03 C 52.361 71.055 51.811 69.731 51.809 68.35 Z M 69.079 78.1 C 69.079 75.228 71.413 72.9 74.292 72.9 L 81.787 72.9 C 84.662 72.897 86.996 75.225 87 78.1 L 87 85.575 C 87 88.447 84.666 90.775 81.787 90.775 L 74.292 90.775 C 71.417 90.778 69.083 88.45 69.079 85.575 Z M 17.27 60.875 C 17.27 58.003 19.604 55.675 22.483 55.675 L 29.977 55.675 C 31.358 55.673 32.683 56.22 33.661 57.195 C 34.639 58.17 35.189 59.494 35.191 60.875 L 35.191 68.35 C 35.191 71.222 32.857 73.55 29.977 73.55 L 22.483 73.55 C 19.608 73.553 17.274 71.225 17.27 68.35 Z M 34.54 78.1 C 34.54 75.228 36.874 72.9 39.753 72.9 L 47.247 72.9 C 48.628 72.898 49.953 73.445 50.931 74.42 C 51.909 75.395 52.459 76.719 52.461 78.1 L 52.461 85.575 C 52.461 88.447 50.127 90.775 47.247 90.775 L 39.753 90.775 C 38.372 90.777 37.047 90.23 36.069 89.255 C 35.091 88.28 34.541 86.956 34.539 85.575 L 34.539 78.1 Z M 51.809 95.325 C 51.809 92.453 54.143 90.125 57.023 90.125 L 64.517 90.125 C 67.392 90.122 69.726 92.45 69.73 95.325 L 69.73 102.8 C 69.73 105.672 67.396 108 64.517 108 L 57.023 108 C 55.642 108.002 54.317 107.455 53.339 106.48 C 52.361 105.505 51.811 104.181 51.809 102.8 Z M 0 78.1 C 0 75.228 2.334 72.9 5.213 72.9 L 12.708 72.9 C 15.583 72.897 17.917 75.225 17.921 78.1 L 17.921 85.575 C 17.921 88.447 15.587 90.775 12.708 90.775 L 5.213 90.775 C 2.338 90.778 0.004 88.45 0 85.575 Z M 17.27 95.325 C 17.27 92.453 19.604 90.125 22.483 90.125 L 29.977 90.125 C 31.358 90.123 32.683 90.67 33.661 91.645 C 34.639 92.62 35.189 93.944 35.191 95.325 L 35.191 102.8 C 35.191 105.672 32.857 108 29.977 108 L 22.483 108 C 19.608 108.003 17.274 105.675 17.27 102.8 Z M 17.4 26.426 C 17.4 22.688 16.504 22.038 13 22.038 L 18.051 17 C 18.051 20.51 21.065 21.388 22.451 21.388 Z M 51.939 95.325 C 51.939 91.588 51.043 90.938 47.54 90.938 L 52.59 85.9 C 52.59 89.41 55.605 90.288 56.99 90.288 Z M 69.209 78.1 C 69.209 74.363 68.313 73.713 64.809 73.713 L 69.86 68.676 C 69.86 72.185 72.874 73.063 74.26 73.063 Z M 35.321 26.426 C 35.321 22.688 36.217 22.038 39.72 22.038 L 34.67 17 C 34.67 20.51 31.655 21.388 30.27 21.388 Z M 52.59 43.65 C 52.59 39.913 53.487 39.263 56.99 39.263 L 51.939 34.226 C 51.939 37.736 48.925 38.613 47.54 38.613 Z M 35.321 60.876 C 35.321 57.138 36.217 56.488 39.72 56.488 L 34.67 51.45 C 34.67 54.96 31.655 55.838 30.27 55.838 Z M 52.59 78.1 C 52.59 74.363 53.487 73.713 56.99 73.713 L 51.939 68.676 C 51.939 72.185 48.925 73.063 47.54 73.063 Z M 18.051 78.1 C 18.051 74.363 18.947 73.713 22.451 73.713 L 17.4 68.676 C 17.4 72.185 14.386 73.063 13 73.063 Z M 35.321 95.325 C 35.321 91.588 36.217 90.938 39.72 90.938 L 34.67 85.9 C 34.67 89.41 31.655 90.288 30.27 90.288 Z M 69.86 26.426 C 69.86 22.688 70.756 22.038 74.26 22.038 L 69.209 17 C 69.209 20.51 66.195 21.388 64.809 21.388 Z M 128.5 53.582 C 128.5 47.394 129.695 41.16 132.086 34.878 C 134.477 28.596 137.805 23.181 142.071 18.634 C 146.337 14.04 151.353 10.641 157.12 8.438 C 162.933 6.188 168.722 5.062 174.488 5.062 C 180.254 5.062 185.317 5.578 189.677 6.609 C 194.037 7.641 197.506 8.25 200.084 8.438 C 202.663 8.625 204.303 8.953 205.007 9.422 C 207.257 10.876 208.382 15.306 208.382 22.712 C 208.382 28.01 207.022 30.659 204.303 30.659 C 203.272 30.659 201.444 28.737 198.819 24.892 C 196.24 21.002 193.849 18.4 191.646 17.087 C 186.677 14.134 181.356 12.657 175.684 12.657 C 165.417 12.657 157.377 16.899 151.564 25.385 C 146.83 32.37 144.462 41.37 144.462 52.387 C 144.462 66.31 147.064 76.928 152.268 84.241 C 158.174 92.586 166.73 96.758 177.934 96.758 C 183.794 96.758 188.857 95.469 193.123 92.891 C 195.232 91.625 197.693 89.445 200.506 86.351 C 203.319 83.257 205.522 81.71 207.116 81.71 C 208.757 81.71 209.577 82.765 209.577 84.874 C 209.577 86.984 208.757 89.586 207.116 92.68 C 205.522 95.774 203.788 97.907 201.913 99.079 C 200.037 100.251 196.404 101.516 191.013 102.876 C 185.669 104.188 181.098 104.845 177.301 104.845 L 172.379 104.845 C 166.425 104.798 160.565 103.556 154.799 101.118 C 143.314 96.196 135.555 87.593 131.523 75.311 C 129.508 69.17 128.5 62.771 128.5 56.114 Z M 247.488 71.303 C 241.393 71.303 236.447 72.779 232.65 75.733 C 228.853 78.686 226.954 81.897 226.954 85.366 L 226.954 87.757 C 227.039 88.221 227.086 88.692 227.095 89.164 C 227.095 91.414 228.08 93.313 230.048 94.86 C 232.064 96.407 234.057 97.18 236.026 97.18 L 238.276 97.18 C 241.37 97.18 244.862 95.821 248.753 93.102 C 251.566 91.133 252.972 88.648 252.972 85.648 C 253.066 85.085 253.113 84.663 253.113 84.382 L 253.254 82.554 L 253.254 80.374 L 253.324 79.038 L 253.324 74.186 C 253.324 72.123 252.715 71.092 251.496 71.092 L 249.738 71.092 C 248.894 71.232 248.144 71.303 247.488 71.303 Z M 241.51 35.3 L 243.268 35.3 C 253.066 35.3 259.77 38.276 263.38 44.23 C 265.583 47.887 266.685 56.372 266.685 69.685 C 266.685 82.999 266.872 90.289 267.247 91.555 C 267.857 93.664 269.193 95.07 271.255 95.774 C 274.631 96.946 276.318 97.743 276.318 98.165 L 276.318 99.219 C 276.318 100.157 275.24 101.259 273.084 102.524 C 270.927 103.79 267.739 104.423 263.52 104.423 C 261.082 104.423 258.879 103.368 256.91 101.259 C 254.941 99.102 253.652 98.024 253.043 98.024 C 252.996 98.024 250.394 99.219 245.237 101.61 C 240.081 104.001 236.026 105.196 233.072 105.196 L 229.767 105.196 C 225.267 105.196 221.47 103.626 218.376 100.485 C 215.328 97.297 213.805 93.852 213.805 90.148 L 213.805 88.39 C 213.805 82.483 216.032 77.749 220.485 74.186 C 223.532 71.748 227.915 69.732 233.635 68.138 C 234.291 67.951 236.869 67.388 241.37 66.451 C 245.87 65.466 248.613 64.74 249.597 64.271 C 252.175 63.005 253.465 60.263 253.465 56.044 C 253.465 51.778 252.316 48.426 250.019 45.988 C 247.722 43.503 244.581 42.261 240.596 42.261 C 236.612 42.261 233.142 44.441 230.189 48.801 C 227.236 53.161 224.165 55.341 220.977 55.341 C 220.274 55.341 219.383 54.825 218.305 53.793 C 217.227 52.762 216.688 51.145 216.688 48.941 C 216.688 45.519 218.516 42.73 222.173 40.574 C 228.126 37.057 234.572 35.3 241.51 35.3 Z M 329.769 84.593 L 329.769 86.492 C 329.769 88.789 329.159 91.203 327.941 93.734 C 326.722 96.219 324.87 98.329 322.385 100.063 C 317.744 103.345 312.025 104.985 305.228 104.985 L 303.329 104.985 C 294.516 104.985 287.789 103.767 283.148 101.329 C 280.944 100.157 279.843 97.344 279.843 92.891 L 279.843 91.203 C 279.843 86.374 281.132 83.96 283.71 83.96 C 284.929 83.96 286.523 85.624 288.492 88.953 C 290.461 92.234 292.148 94.438 293.555 95.563 C 296.367 97.813 300.047 98.938 304.595 98.938 C 309.142 98.938 312.47 97.954 314.58 95.985 C 316.736 94.016 317.815 91.578 317.815 88.671 C 317.815 85.718 316.361 83.116 313.455 80.866 C 311.674 79.507 307.29 77.35 300.305 74.397 C 293.367 71.397 288.468 68.443 285.609 65.537 C 282.796 62.583 281.39 58.575 281.39 53.512 C 281.39 48.449 283.569 44.183 287.929 40.714 C 292.289 37.245 297.821 35.51 304.524 35.51 L 306.423 35.51 C 315.143 35.51 321.213 36.612 324.636 38.815 C 326.183 39.8 326.956 42.191 326.956 45.988 C 326.956 51.52 325.573 54.286 322.807 54.286 C 321.87 54.286 320.487 52.856 318.659 49.996 C 316.83 47.136 314.932 45.027 312.963 43.667 C 311.041 42.308 308.228 41.628 304.524 41.628 C 300.868 41.628 298.008 42.472 295.946 44.16 C 293.93 45.847 292.922 48.144 292.922 51.051 C 292.922 53.958 294.563 56.536 297.844 58.786 C 299.719 60.052 303.774 61.974 310.009 64.552 C 316.291 67.084 320.909 69.639 323.862 72.217 C 327.8 75.639 329.769 79.764 329.769 84.593 Z M 333.082 40.995 C 333.082 39.917 334.254 38.722 336.598 37.409 C 338.989 36.096 340.513 34.971 341.169 34.034 C 341.872 33.049 343.068 30.166 344.755 25.384 C 346.49 20.603 348.295 18.212 350.17 18.212 C 352.092 18.212 353.381 18.962 354.037 20.462 C 354.319 21.166 354.67 23.088 355.092 26.228 C 355.514 29.322 356.287 31.526 357.413 32.838 C 358.538 34.104 361.233 35.229 365.499 36.214 C 369.765 37.198 371.898 38.558 371.898 40.292 C 371.898 41.98 369.578 43.199 364.937 43.949 C 360.296 44.652 357.577 45.707 356.78 47.113 C 355.28 49.692 354.529 56.981 354.529 68.982 C 354.529 80.936 355.162 88.414 356.428 91.414 C 357.741 94.367 359.733 95.844 362.405 95.844 C 363.905 95.844 365.945 95.446 368.523 94.649 C 371.148 93.805 372.719 93.383 373.234 93.383 C 374.781 93.383 375.555 94.297 375.555 96.125 C 375.555 98.375 373.07 100.602 368.101 102.806 C 365.241 104.071 362.218 104.704 359.03 104.704 C 355.889 104.704 353.006 103.978 350.381 102.524 C 347.802 101.071 345.833 99.055 344.474 96.477 C 342.458 92.68 341.45 84.64 341.45 72.358 L 341.45 66.521 L 341.31 60.896 C 341.31 54.942 340.841 50.863 339.903 48.66 C 339.012 46.457 337.981 44.98 336.809 44.23 C 334.325 42.683 333.082 41.605 333.082 40.995 Z M 384.564 92.469 C 385.361 87.687 385.759 73.951 385.759 51.262 C 385.759 28.526 385.502 15.939 384.986 13.501 C 384.517 11.063 383.228 9.375 381.118 8.438 C 378.071 7.125 376.548 6 376.548 5.062 C 376.548 4.078 377.134 3.304 378.306 2.742 C 382.103 0.914 387.658 0 394.971 0 C 397.737 0 399.308 1.43 399.683 4.289 C 399.776 4.945 399.823 11.415 399.823 23.697 L 399.753 28.057 L 399.753 33.893 L 399.612 39.659 L 399.612 45.496 C 399.612 73.342 399.776 88.578 400.104 91.203 C 400.48 93.781 401.675 95.703 403.691 96.969 C 407.394 99.313 409.246 100.649 409.246 100.977 C 409.246 102.665 405.964 103.509 399.401 103.509 L 396.589 103.649 L 383.72 103.931 L 380.767 103.931 C 378.282 103.931 377.04 103.251 377.04 101.891 C 377.04 100.813 378.188 99.594 380.486 98.235 C 382.783 96.875 384.142 94.953 384.564 92.469 Z M 429.998 63.919 L 431.827 63.919 L 445.258 63.005 C 446.898 62.771 448.094 62.653 448.844 62.653 C 451.938 62.653 454.094 62.044 455.313 60.825 C 455.829 60.31 456.087 59.091 456.087 57.169 C 456.087 52.715 454.774 49.035 452.149 46.129 C 449.57 43.175 446.453 41.699 442.796 41.699 L 441.39 41.699 C 437.171 41.699 433.397 43.527 430.069 47.183 C 426.787 50.84 425.146 54.965 425.146 59.559 L 425.006 60.474 L 425.006 60.896 C 425.006 62.724 425.99 63.638 427.959 63.638 C 428.897 63.826 429.576 63.919 429.998 63.919 Z M 424.584 75.733 C 424.584 82.249 426.67 87.382 430.842 91.133 C 435.014 94.883 440.499 96.758 447.297 96.758 C 450.11 96.758 453.813 95.703 458.407 93.594 C 463.001 91.484 465.369 90.429 465.509 90.429 C 467.15 90.429 467.97 91.203 467.97 92.75 C 467.97 95.656 464.712 98.704 458.196 101.891 C 453.743 104.048 448.984 105.126 443.921 105.126 L 442.304 105.126 C 432.366 105.126 424.584 102.032 418.958 95.844 C 413.333 89.609 410.52 81.499 410.52 71.514 L 410.52 69.545 C 410.52 65.419 411.34 61.271 412.981 57.098 C 416.45 48.144 421.959 41.98 429.506 38.604 C 434.241 36.495 438.577 35.44 442.515 35.44 L 445.609 35.44 C 451.75 35.44 457.095 37.41 461.642 41.347 C 464.08 43.457 465.978 46.129 467.338 49.363 C 468.697 52.598 469.377 55.458 469.377 57.943 L 469.377 59.419 C 469.377 62.982 467.924 65.372 465.017 66.591 C 463.329 67.295 457.188 68.021 446.594 68.771 C 436.046 69.521 430.116 70.084 428.803 70.459 C 425.99 71.256 424.584 73.014 424.584 75.733 Z" fill="transparent" height="108.0000082561339px" id="JwLmBsEBS" transform="translate(21 20)" width="469.3769890136719px"><path d="M 0 5.2 C 0 2.328 2.334 0 5.213 0 L 12.708 0 C 15.583 -0.003 17.917 2.325 17.921 5.2 L 17.921 12.675 C 17.921 15.547 15.587 17.875 12.708 17.875 L 5.213 17.875 C 2.338 17.878 0.004 15.55 0 12.675 Z M 17.27 22.425 C 17.27 19.553 19.604 17.225 22.483 17.225 L 29.977 17.225 C 31.358 17.223 32.683 17.77 33.661 18.745 C 34.639 19.72 35.189 21.044 35.191 22.425 L 35.191 29.9 C 35.191 32.772 32.857 35.1 29.977 35.1 L 22.483 35.1 C 19.608 35.103 17.274 32.775 17.27 29.9 Z M 34.54 5.2 C 34.54 2.328 36.874 0 39.753 0 L 47.247 0 C 48.628 -0.002 49.953 0.545 50.931 1.52 C 51.909 2.495 52.459 3.819 52.461 5.2 L 52.461 12.675 C 52.461 15.547 50.127 17.875 47.247 17.875 L 39.753 17.875 C 38.372 17.877 37.047 17.33 36.069 16.355 C 35.091 15.38 34.541 14.056 34.539 12.675 L 34.539 5.2 Z M 69.079 5.2 C 69.079 2.328 71.413 0 74.292 0 L 81.787 0 C 84.662 -0.003 86.996 2.325 87 5.2 L 87 12.675 C 87 15.547 84.666 17.875 81.787 17.875 L 74.292 17.875 C 71.417 17.878 69.083 15.55 69.079 12.675 Z M 51.809 22.425 C 51.809 19.553 54.143 17.225 57.023 17.225 L 64.517 17.225 C 67.392 17.222 69.726 19.55 69.73 22.425 L 69.73 29.9 C 69.73 32.772 67.396 35.1 64.517 35.1 L 57.023 35.1 C 55.642 35.102 54.317 34.555 53.339 33.58 C 52.361 32.605 51.811 31.281 51.809 29.9 Z M 34.54 39.65 C 34.54 36.778 36.874 34.45 39.753 34.45 L 47.247 34.45 C 48.628 34.448 49.953 34.995 50.931 35.97 C 51.909 36.945 52.459 38.269 52.461 39.65 L 52.461 47.125 C 52.461 49.997 50.127 52.325 47.247 52.325 L 39.753 52.325 C 38.372 52.327 37.047 51.78 36.069 50.805 C 35.091 49.83 34.541 48.506 34.539 47.125 L 34.539 39.65 Z M 51.809 56.875 C 51.809 54.003 54.143 51.675 57.023 51.675 L 64.517 51.675 C 67.392 51.672 69.726 54 69.73 56.875 L 69.73 64.35 C 69.73 67.222 67.396 69.55 64.517 69.55 L 57.023 69.55 C 55.642 69.552 54.317 69.005 53.339 68.03 C 52.361 67.055 51.811 65.731 51.809 64.35 Z M 69.079 74.1 C 69.079 71.228 71.413 68.9 74.292 68.9 L 81.787 68.9 C 84.662 68.897 86.996 71.225 87 74.1 L 87 81.575 C 87 84.447 84.666 86.775 81.787 86.775 L 74.292 86.775 C 71.417 86.778 69.083 84.45 69.079 81.575 Z M 17.27 56.875 C 17.27 54.003 19.604 51.675 22.483 51.675 L 29.977 51.675 C 31.358 51.673 32.683 52.22 33.661 53.195 C 34.639 54.17 35.189 55.494 35.191 56.875 L 35.191 64.35 C 35.191 67.222 32.857 69.55 29.977 69.55 L 22.483 69.55 C 19.608 69.553 17.274 67.225 17.27 64.35 Z M 34.54 74.1 C 34.54 71.228 36.874 68.9 39.753 68.9 L 47.247 68.9 C 48.628 68.898 49.953 69.445 50.931 70.42 C 51.909 71.395 52.459 72.719 52.461 74.1 L 52.461 81.575 C 52.461 84.447 50.127 86.775 47.247 86.775 L 39.753 86.775 C 38.372 86.777 37.047 86.23 36.069 85.255 C 35.091 84.28 34.541 82.956 34.539 81.575 L 34.539 74.1 Z M 51.809 91.325 C 51.809 88.453 54.143 86.125 57.023 86.125 L 64.517 86.125 C 67.392 86.122 69.726 88.45 69.73 91.325 L 69.73 98.8 C 69.73 101.672 67.396 104 64.517 104 L 57.023 104 C 55.642 104.002 54.317 103.455 53.339 102.48 C 52.361 101.505 51.811 100.181 51.809 98.8 Z M 0 74.1 C 0 71.228 2.334 68.9 5.213 68.9 L 12.708 68.9 C 15.583 68.897 17.917 71.225 17.921 74.1 L 17.921 81.575 C 17.921 84.447 15.587 86.775 12.708 86.775 L 5.213 86.775 C 2.338 86.778 0.004 84.45 0 81.575 Z M 17.27 91.325 C 17.27 88.453 19.604 86.125 22.483 86.125 L 29.977 86.125 C 31.358 86.123 32.683 86.67 33.661 87.645 C 34.639 88.62 35.189 89.944 35.191 91.325 L 35.191 98.8 C 35.191 101.672 32.857 104 29.977 104 L 22.483 104 C 19.608 104.003 17.274 101.675 17.27 98.8 Z" fill="#171717" height="104.0000082561339px" id="USsIgPCyY" transform="translate(0 4)" width="87.0000023803711px"/><path d="M 4.4 9.426 C 4.4 5.688 3.504 5.038 0 5.038 L 5.051 0 C 5.051 3.51 8.065 4.388 9.451 4.388 Z M 38.939 78.325 C 38.939 74.588 38.043 73.938 34.54 73.938 L 39.59 68.9 C 39.59 72.41 42.605 73.288 43.99 73.288 Z M 56.209 61.1 C 56.209 57.363 55.313 56.713 51.809 56.713 L 56.86 51.676 C 56.86 55.185 59.874 56.063 61.26 56.063 Z M 22.321 9.426 C 22.321 5.688 23.217 5.038 26.72 5.038 L 21.67 0 C 21.67 3.51 18.655 4.388 17.27 4.388 Z M 39.59 26.65 C 39.59 22.913 40.487 22.263 43.99 22.263 L 38.939 17.226 C 38.939 20.736 35.925 21.613 34.54 21.613 Z M 22.321 43.876 C 22.321 40.138 23.217 39.488 26.72 39.488 L 21.67 34.45 C 21.67 37.96 18.655 38.838 17.27 38.838 Z M 39.59 61.1 C 39.59 57.363 40.487 56.713 43.99 56.713 L 38.939 51.676 C 38.939 55.185 35.925 56.063 34.54 56.063 Z M 5.051 61.1 C 5.051 57.363 5.947 56.713 9.451 56.713 L 4.4 51.676 C 4.4 55.185 1.386 56.063 0 56.063 Z M 22.321 78.325 C 22.321 74.588 23.217 73.938 26.72 73.938 L 21.67 68.9 C 21.67 72.41 18.655 73.288 17.27 73.288 Z M 56.86 9.426 C 56.86 5.688 57.756 5.038 61.26 5.038 L 56.209 0 C 56.209 3.51 53.195 4.388 51.809 4.388 Z" fill="#171717" height="78.3250015258789px" id="t5CtjNeti" transform="translate(13 17)" width="61.259998107910164px"/><path d="M 0 53.582 C 0 47.394 1.195 41.16 3.586 34.878 C 5.977 28.596 9.305 23.181 13.571 18.634 C 17.837 14.04 22.853 10.641 28.62 8.438 C 34.433 6.188 40.222 5.062 45.988 5.062 C 51.754 5.062 56.817 5.578 61.177 6.609 C 65.537 7.641 69.006 8.25 71.584 8.438 C 74.163 8.625 75.803 8.953 76.507 9.422 C 78.757 10.876 79.882 15.306 79.882 22.712 C 79.882 28.01 78.522 30.659 75.803 30.659 C 74.772 30.659 72.944 28.737 70.319 24.892 C 67.74 21.002 65.349 18.4 63.146 17.087 C 58.177 14.134 52.856 12.657 47.184 12.657 C 36.917 12.657 28.877 16.899 23.064 25.385 C 18.33 32.37 15.962 41.37 15.962 52.387 C 15.962 66.31 18.564 76.928 23.768 84.241 C 29.674 92.586 38.23 96.758 49.434 96.758 C 55.294 96.758 60.357 95.469 64.623 92.891 C 66.732 91.625 69.193 89.445 72.006 86.351 C 74.819 83.257 77.022 81.71 78.616 81.71 C 80.257 81.71 81.077 82.765 81.077 84.874 C 81.077 86.984 80.257 89.586 78.616 92.68 C 77.022 95.774 75.288 97.907 73.413 99.079 C 71.537 100.251 67.904 101.516 62.513 102.876 C 57.169 104.188 52.598 104.845 48.801 104.845 L 43.879 104.845 C 37.925 104.798 32.065 103.556 26.299 101.118 C 14.814 96.196 7.055 87.593 3.023 75.311 C 1.008 69.17 0 62.771 0 56.114 Z M 118.988 71.303 C 112.893 71.303 107.947 72.779 104.15 75.733 C 100.353 78.686 98.454 81.897 98.454 85.366 L 98.454 87.757 C 98.539 88.221 98.586 88.692 98.595 89.164 C 98.595 91.414 99.58 93.313 101.548 94.86 C 103.564 96.407 105.557 97.18 107.526 97.18 L 109.776 97.18 C 112.87 97.18 116.362 95.821 120.253 93.102 C 123.066 91.133 124.472 88.648 124.472 85.648 C 124.566 85.085 124.613 84.663 124.613 84.382 L 124.754 82.554 L 124.754 80.374 L 124.824 79.038 L 124.824 74.186 C 124.824 72.123 124.215 71.092 122.996 71.092 L 121.238 71.092 C 120.394 71.232 119.644 71.303 118.988 71.303 Z M 113.01 35.3 L 114.768 35.3 C 124.566 35.3 131.27 38.276 134.88 44.23 C 137.083 47.887 138.185 56.372 138.185 69.685 C 138.185 82.999 138.372 90.289 138.747 91.555 C 139.357 93.664 140.693 95.07 142.755 95.774 C 146.131 96.946 147.818 97.743 147.818 98.165 L 147.818 99.219 C 147.818 100.157 146.74 101.259 144.584 102.524 C 142.427 103.79 139.239 104.423 135.02 104.423 C 132.582 104.423 130.379 103.368 128.41 101.259 C 126.441 99.102 125.152 98.024 124.543 98.024 C 124.496 98.024 121.894 99.219 116.737 101.61 C 111.581 104.001 107.526 105.196 104.572 105.196 L 101.267 105.196 C 96.767 105.196 92.97 103.626 89.876 100.485 C 86.828 97.297 85.305 93.852 85.305 90.148 L 85.305 88.39 C 85.305 82.483 87.532 77.749 91.985 74.186 C 95.032 71.748 99.415 69.732 105.135 68.138 C 105.791 67.951 108.369 67.388 112.87 66.451 C 117.37 65.466 120.113 64.74 121.097 64.271 C 123.675 63.005 124.965 60.263 124.965 56.044 C 124.965 51.778 123.816 48.426 121.519 45.988 C 119.222 43.503 116.081 42.261 112.096 42.261 C 108.112 42.261 104.642 44.441 101.689 48.801 C 98.736 53.161 95.665 55.341 92.477 55.341 C 91.774 55.341 90.883 54.825 89.805 53.793 C 88.727 52.762 88.188 51.145 88.188 48.941 C 88.188 45.519 90.016 42.73 93.673 40.574 C 99.626 37.057 106.072 35.3 113.01 35.3 Z M 201.269 84.593 L 201.269 86.492 C 201.269 88.789 200.659 91.203 199.441 93.734 C 198.222 96.219 196.37 98.329 193.885 100.063 C 189.244 103.345 183.525 104.985 176.728 104.985 L 174.829 104.985 C 166.016 104.985 159.289 103.767 154.648 101.329 C 152.444 100.157 151.343 97.344 151.343 92.891 L 151.343 91.203 C 151.343 86.374 152.632 83.96 155.21 83.96 C 156.429 83.96 158.023 85.624 159.992 88.953 C 161.961 92.234 163.648 94.438 165.055 95.563 C 167.867 97.813 171.547 98.938 176.095 98.938 C 180.642 98.938 183.97 97.954 186.08 95.985 C 188.236 94.016 189.315 91.578 189.315 88.671 C 189.315 85.718 187.861 83.116 184.955 80.866 C 183.174 79.507 178.79 77.35 171.805 74.397 C 164.867 71.397 159.968 68.443 157.109 65.537 C 154.296 62.583 152.89 58.575 152.89 53.512 C 152.89 48.449 155.069 44.183 159.429 40.714 C 163.789 37.245 169.321 35.51 176.024 35.51 L 177.923 35.51 C 186.643 35.51 192.713 36.612 196.136 38.815 C 197.683 39.8 198.456 42.191 198.456 45.988 C 198.456 51.52 197.073 54.286 194.307 54.286 C 193.37 54.286 191.987 52.856 190.159 49.996 C 188.33 47.136 186.432 45.027 184.463 43.667 C 182.541 42.308 179.728 41.628 176.024 41.628 C 172.368 41.628 169.508 42.472 167.446 44.16 C 165.43 45.847 164.422 48.144 164.422 51.051 C 164.422 53.958 166.063 56.536 169.344 58.786 C 171.219 60.052 175.274 61.974 181.509 64.552 C 187.791 67.084 192.409 69.639 195.362 72.217 C 199.3 75.639 201.269 79.764 201.269 84.593 Z M 204.582 40.995 C 204.582 39.917 205.754 38.722 208.098 37.409 C 210.489 36.096 212.013 34.971 212.669 34.034 C 213.372 33.049 214.568 30.166 216.255 25.384 C 217.99 20.603 219.795 18.212 221.67 18.212 C 223.592 18.212 224.881 18.962 225.537 20.462 C 225.819 21.166 226.17 23.088 226.592 26.228 C 227.014 29.322 227.787 31.526 228.913 32.838 C 230.038 34.104 232.733 35.229 236.999 36.214 C 241.265 37.198 243.398 38.558 243.398 40.292 C 243.398 41.98 241.078 43.199 236.437 43.949 C 231.796 44.652 229.077 45.707 228.28 47.113 C 226.78 49.692 226.029 56.981 226.029 68.982 C 226.029 80.936 226.662 88.414 227.928 91.414 C 229.241 94.367 231.233 95.844 233.905 95.844 C 235.405 95.844 237.445 95.446 240.023 94.649 C 242.648 93.805 244.219 93.383 244.734 93.383 C 246.281 93.383 247.055 94.297 247.055 96.125 C 247.055 98.375 244.57 100.602 239.601 102.806 C 236.741 104.071 233.718 104.704 230.53 104.704 C 227.389 104.704 224.506 103.978 221.881 102.524 C 219.302 101.071 217.333 99.055 215.974 96.477 C 213.958 92.68 212.95 84.64 212.95 72.358 L 212.95 66.521 L 212.81 60.896 C 212.81 54.942 212.341 50.863 211.403 48.66 C 210.512 46.457 209.481 44.98 208.309 44.23 C 205.825 42.683 204.582 41.605 204.582 40.995 Z M 256.064 92.469 C 256.861 87.687 257.259 73.951 257.259 51.262 C 257.259 28.526 257.002 15.939 256.486 13.501 C 256.017 11.063 254.728 9.375 252.618 8.438 C 249.571 7.125 248.048 6 248.048 5.062 C 248.048 4.078 248.634 3.304 249.806 2.742 C 253.603 0.914 259.158 0 266.471 0 C 269.237 0 270.808 1.43 271.183 4.289 C 271.276 4.945 271.323 11.415 271.323 23.697 L 271.253 28.057 L 271.253 33.893 L 271.112 39.659 L 271.112 45.496 C 271.112 73.342 271.276 88.578 271.604 91.203 C 271.98 93.781 273.175 95.703 275.191 96.969 C 278.894 99.313 280.746 100.649 280.746 100.977 C 280.746 102.665 277.464 103.509 270.901 103.509 L 268.089 103.649 L 255.22 103.931 L 252.267 103.931 C 249.782 103.931 248.54 103.251 248.54 101.891 C 248.54 100.813 249.688 99.594 251.986 98.235 C 254.283 96.875 255.642 94.953 256.064 92.469 Z M 301.498 63.919 L 303.327 63.919 L 316.758 63.005 C 318.398 62.771 319.594 62.653 320.344 62.653 C 323.438 62.653 325.594 62.044 326.813 60.825 C 327.329 60.31 327.587 59.091 327.587 57.169 C 327.587 52.715 326.274 49.035 323.649 46.129 C 321.07 43.175 317.953 41.699 314.296 41.699 L 312.89 41.699 C 308.671 41.699 304.897 43.527 301.569 47.183 C 298.287 50.84 296.646 54.965 296.646 59.559 L 296.506 60.474 L 296.506 60.896 C 296.506 62.724 297.49 63.638 299.459 63.638 C 300.397 63.826 301.076 63.919 301.498 63.919 Z M 296.084 75.733 C 296.084 82.249 298.17 87.382 302.342 91.133 C 306.514 94.883 311.999 96.758 318.797 96.758 C 321.61 96.758 325.313 95.703 329.907 93.594 C 334.501 91.484 336.869 90.429 337.009 90.429 C 338.65 90.429 339.47 91.203 339.47 92.75 C 339.47 95.656 336.212 98.704 329.696 101.891 C 325.243 104.048 320.484 105.126 315.421 105.126 L 313.804 105.126 C 303.866 105.126 296.084 102.032 290.458 95.844 C 284.833 89.609 282.02 81.499 282.02 71.514 L 282.02 69.545 C 282.02 65.419 282.84 61.271 284.481 57.098 C 287.95 48.144 293.459 41.98 301.006 38.604 C 305.741 36.495 310.077 35.44 314.015 35.44 L 317.109 35.44 C 323.25 35.44 328.595 37.41 333.142 41.347 C 335.58 43.457 337.478 46.129 338.838 49.363 C 340.197 52.598 340.877 55.458 340.877 57.943 L 340.877 59.419 C 340.877 62.982 339.424 65.372 336.517 66.591 C 334.829 67.295 328.688 68.021 318.094 68.771 C 307.546 69.521 301.616 70.084 300.303 70.459 C 297.49 71.256 296.084 73.014 296.084 75.733 Z" fill="#171717" height="105.19599923706058px" id="s37LNQB_U" transform="translate(128.5 0)" width="340.8769890136719px"/></g></svg>